# xmcd
# 
# Track frame offsets:
#     150
#     29317
#     45141
#     64465
#     77325
#     97479
#     125954
#     148767
#     165290
#     185087
#     207009
#     225133
#     241028
#     262501
#     284244
#     299634
#     319501
#     338481
#     359800
# 
# Disc length: 5233
# 
# Revision: 1
# Processed by: cddbd v1.5.2PL0 Copyright (c) Steve Scherf et al.
# Submitted via: BonkEnc v1.0.8
# 
DISCID=19146f13
DTITLE=Eagles - The Very Best Of Eagles
DYEAR=0
DGENRE=Blues
TTITLE0=Hotel California
TTITLE1=Take It Easy
TTITLE2=Peaceful Easy Feeling
TTITLE3=Tequila Sunrise
TTITLE4=Best Of My Love
TTITLE5=Lyin' Eye
TTITLE6=New Kid In Town
TTITLE7=The Long Run
TTITLE8=Heartache Tonight
TTITLE9=I Can't Tell You Why
TTITLE10=Love Will Keep Us Alive
TTITLE11=Desperado
TTITLE12=Take It To the Limit
TTITLE13=Ohe Of These Night
TTITLE14=Doolin Dalton
TTITLE15=Learn To Be Still
TTITLE16=Witchy Women
TTITLE17=Life In The Fast Lane
TTITLE18=Hotel California (Unplugged)
EXTD=
EXTT0=
EXTT1=
EXTT2=
EXTT3=
EXTT4=
EXTT5=
EXTT6=
EXTT7=
EXTT8=
EXTT9=
EXTT10=
EXTT11=
EXTT12=
EXTT13=
EXTT14=
EXTT15=
EXTT16=
EXTT17=
EXTT18=
PLAYORDER=
